<svg xmlns="http://www.w3.org/2000/svg" xmlns:xlink="http://www.w3.org/1999/xlink"><defs><style>
    .sprite-symbol-usage {display: none;}
    .sprite-symbol-usage:target {display: inline;}
</style><symbol viewBox="0 0 14 18" fill="none" id="attention">
    <path fill-rule="evenodd" clip-rule="evenodd" d="M0 3.27273L7 0L14 3.27273V8.18182C14 12.7227 11.0133 16.9691 7 18C2.98667 16.9691 0 12.7227 0 8.18182V3.27273ZM6.43098 10.8276H7.60269L7.94613 4H6.08081L6.43098 10.8276ZM6.26263 12.216C6.08754 12.3859 6 12.6363 6 12.9671C6 13.298 6.08754 13.5529 6.26263 13.7317C6.4422 13.9106 6.69136 14 7.0101 14C7.32435 14 7.56678 13.9083 7.73737 13.725C7.91246 13.5372 8 13.2846 8 12.9671C8 12.6497 7.9147 12.4015 7.74411 12.2227C7.57351 12.0438 7.32884 11.9544 7.0101 11.9544C6.68687 11.9544 6.43771 12.0416 6.26263 12.216Z" fill="white" />
</symbol><symbol viewBox="0 0 13 11" id="basket"><defs><path id="basket_9omma" d="M296 74c0 .27-.1.5-.3.7-.2.2-.43.3-.7.3-.27 0-.5-.1-.7-.3a.96.96 0 0 1-.3-.7c0-.27.1-.5.3-.7.2-.2.43-.3.7-.3h7c.27 0 .5.1.7.3.2.2.3.43.3.7 0 .27-.1.5-.3.7-.2.2-.43.3-.7.3-.27 0-.5-.1-.7-.3a.96.96 0 0 1-.3-.7c0-.27.1-.5.3-.7.2-.2.43-.3.7-.3h.5c.14 0 .25-.05.35-.15.1-.1.15-.21.15-.35a.48.48 0 0 0-.15-.35.48.48 0 0 0-.35-.15h-7.19c.13-.25.19-.42.19-.5 0-.05-.03-.23-.1-.55l8.15-.95a.5.5 0 0 0 .32-.17c.09-.1.13-.2.13-.33v-4a.48.48 0 0 0-.15-.35.48.48 0 0 0-.35-.15h-9.38a6.17 6.17 0 0 0-.14-.64.76.76 0 0 0-.1-.19.48.48 0 0 0-.38-.17h-2a.48.48 0 0 0-.35.15c-.1.1-.15.21-.15.35 0 .14.05.25.15.35.1.1.21.15.35.15h1.6l1.38 6.43-.12.23a13.63 13.63 0 0 0-.3.6.74.74 0 0 0-.06.24c0 .14.05.25.15.35.1.1.21.15.35.15h.5c.27 0 .5.1.7.3.2.2.3.43.3.7z" /></defs><g><g transform="translate(-291 -64)"><use fill="#fff" xlink:href="#basket_9omma" /></g></g></symbol><symbol viewBox="0 0 16 16" id="bell"><defs><path id="bell_qtuga" d="M29.22 123.67h-.35v-3.91a5.33 5.33 0 0 0-4.3-5.23 1.77 1.77 0 0 0-3.5 0 5.33 5.33 0 0 0-4.3 5.23v3.9h-.35a1.42 1.42 0 0 0 0 2.85h12.8a1.42 1.42 0 0 0 0-2.84z" /><path id="bell_qtugb" d="M22.82 129c.98 0 1.78-.8 1.78-1.78h-3.56c0 .98.8 1.78 1.78 1.78z" /></defs><g><g transform="translate(-15 -113)"><use fill="#231f20" xlink:href="#bell_qtuga" /></g><g transform="translate(-15 -113)"><use fill="#231f20" xlink:href="#bell_qtugb" /></g></g></symbol><symbol viewBox="0 0 18 18" id="bell-red"><defs><path id="bell-red_xo2va" d="M28.79 123.64h-.26v-3.88c0-.84-.2-1.63-.56-2.34l-9.05 9.05h9.87a1.41 1.41 0 0 0 0-2.83z" /><path id="bell-red_xo2vb" d="M29.47 112l-3.1 3.09a5.42 5.42 0 0 0-1.93-.8 1.82 1.82 0 0 0-1.8-1.55c-.9 0-1.6.67-1.73 1.54a5.37 5.37 0 0 0-4.31 5.3v3.95h-.45a1.44 1.44 0 0 0-.83 2.61l-2.25 2.26 1.27 1.27 16.4-16.4z" /><path id="bell-red_xo2vc" d="M22.52 128.94c.98 0 1.77-.79 1.77-1.76h-3.53c0 .97.79 1.76 1.76 1.76z" /></defs><g><g transform="translate(-13 -112)"><use fill="#e45d60" xlink:href="#bell-red_xo2va" /></g><g transform="translate(-13 -112)"><use fill="#e35153" xlink:href="#bell-red_xo2vb" /></g><g transform="translate(-13 -112)"><use fill="#e45d60" xlink:href="#bell-red_xo2vc" /></g></g></symbol><symbol viewBox="0 0 16 16" id="block"><defs><path id="block_9oxja" d="M81.98 109.99a7.99 7.99 0 1 1-15.98 0 7.99 7.99 0 0 1 15.98 0zm-3.19-1.25h-9.6v2.5h9.6z" /></defs><g><g transform="translate(-66 -102)"><use xlink:href="#block_9oxja" /></g></g></symbol><symbol viewBox="0 0 13 17" id="bubble-blue"><defs><path id="bubble-blue_supxa" d="M256.52 114s-2.84 2.1-5.9 3.04a26.3 26.3 0 0 1-6.62.96s5.78-2.23 5.78-9.8v-2.07A18 18 0 0 1 232.85 118H82a18 18 0 0 1-18-18V88a18 18 0 0 1 18-18h150.85a18 18 0 0 1 18 18v12c0 .91-.07 1.8-.2 2.68zm-6.74 14l6.74 13s-2.84 2.1-5.9 3.04a26.3 26.3 0 0 1-6.62.96s5.78-2.23 5.78-9.8V128z" /></defs><g><g transform="translate(-244 -128)"><use fill="#758da6" xlink:href="#bubble-blue_supxa" /></g></g></symbol><symbol viewBox="0 0 13 17" id="bubble-red"><defs><path id="bubble-red_q0uza" d="M52.78 272l6.74 13s-2.84 2.1-5.9 3.04A26.3 26.3 0 0 1 47 289s5.78-2.23 5.78-9.8V272zm17.5-50h95.03a17.5 17.5 0 0 1 0 35H70.28a17.5 17.5 0 0 1 0-35z" /></defs><g><g transform="translate(-47 -272)"><use fill="#f07474" xlink:href="#bubble-red_q0uza" /></g></g></symbol><symbol viewBox="0 0 10 10" fill="none" id="camera">
    <path d="M3.21875 6.78125C3.71875 7.26562 4.3125 7.50781 5 7.50781C5.6875 7.50781 6.27344 7.26562 6.75781 6.78125C7.25781 6.28125 7.50781 5.6875 7.50781 5C7.50781 4.3125 7.25781 3.72656 6.75781 3.24219C6.27344 2.74219 5.6875 2.49219 5 2.49219C4.3125 2.49219 3.71875 2.74219 3.21875 3.24219C2.73438 3.72656 2.49219 4.3125 2.49219 5C2.49219 5.6875 2.73438 6.28125 3.21875 6.78125ZM3.5 0.0078125H6.5L7.41406 0.992188H9.00781C9.27344 0.992188 9.5 1.09375 9.6875 1.29688C9.89062 1.5 9.99219 1.73438 9.99219 2V8C9.99219 8.26562 9.89062 8.5 9.6875 8.70312C9.5 8.90625 9.27344 9.00781 9.00781 9.00781H0.992188C0.726562 9.00781 0.492188 8.90625 0.289062 8.70312C0.101562 8.5 0.0078125 8.26562 0.0078125 8V2C0.0078125 1.73438 0.101562 1.5 0.289062 1.29688C0.492188 1.09375 0.726562 0.992188 0.992188 0.992188H2.58594L3.5 0.0078125ZM3.875 6.125C3.5625 5.8125 3.40625 5.4375 3.40625 5C3.40625 4.5625 3.5625 4.1875 3.875 3.875C4.1875 3.5625 4.5625 3.40625 5 3.40625C5.4375 3.40625 5.8125 3.5625 6.125 3.875C6.4375 4.1875 6.59375 4.5625 6.59375 5C6.59375 5.4375 6.4375 5.8125 6.125 6.125C5.8125 6.4375 5.4375 6.59375 5 6.59375C4.5625 6.59375 4.1875 6.4375 3.875 6.125Z" fill="white" />
</symbol><symbol viewBox="0 0 24 23" id="chat"><defs><path id="chat_7bila" d="M67 478.4v13.2c0 1.3-1.1 2.4-2.4 2.4h-3.2v4a.4.4 0 0 1-.7.27L56.82 494H45.4c-1.3 0-2.4-1.1-2.4-2.4v-13.2c0-1.3 1.1-2.4 2.4-2.4h19.2c1.3 0 2.4 1.1 2.4 2.4zm-16 6.4a1.6 1.6 0 1 0-3.2 0 1.6 1.6 0 0 0 3.2 0zm5.6 0a1.6 1.6 0 1 0-3.2 0 1.6 1.6 0 0 0 3.2 0zm5.6 0a1.6 1.6 0 1 0-3.2 0 1.6 1.6 0 0 0 3.2 0z" /></defs><g><g transform="translate(-43 -476)"><use xlink:href="#chat_7bila" /></g></g></symbol><symbol viewBox="0 0 15 15" id="close-red"><defs><path id="close-red_f19xa" d="M84 647.5a7.5 7.5 0 1 1-15 0 7.5 7.5 0 0 1 15 0zm-4.67 1.77l-1.7-1.7 1.58-1.59a.77.77 0 1 0-1.09-1.08l-1.58 1.58-1.66-1.66a.77.77 0 0 0-1.09 1.09l1.67 1.66-1.79 1.78a.77.77 0 1 0 1.08 1.09l1.79-1.79 1.7 1.7a.77.77 0 0 0 1.09-1.08z" /></defs><g><g transform="translate(-69 -640)"><use fill="#e24646" xlink:href="#close-red_f19xa" /></g></g></symbol><symbol viewBox="0 0 15 15" id="close-white"><defs><path id="close-white_f19xa" d="M84 647.5a7.5 7.5 0 1 1-15 0 7.5 7.5 0 0 1 15 0zm-4.67 1.77l-1.7-1.7 1.58-1.59a.77.77 0 1 0-1.09-1.08l-1.58 1.58-1.66-1.66a.77.77 0 0 0-1.09 1.09l1.67 1.66-1.79 1.78a.77.77 0 1 0 1.08 1.09l1.79-1.79 1.7 1.7a.77.77 0 0 0 1.09-1.08z" /></defs><g><g transform="translate(-69 -640)"><use fill="#ffffff" xlink:href="#close-white_f19xa" /></g></g></symbol><symbol viewBox="0 0 11 10" id="close-x"><defs><path id="close-x_ia2ha" d="M298.54 113.14c0 .67-.54 1.22-1.22 1.22h-3.86v4.04a1.23 1.23 0 1 1-2.46 0v-4.04h-3.75a1.23 1.23 0 0 1 0-2.45H291v-3.58a1.23 1.23 0 1 1 2.46 0v3.58h3.86c.67 0 1.22.55 1.22 1.23z" /></defs><g><g transform="translate(-287 -108)"><use fill="#d8d8d8" xlink:href="#close-x_ia2ha" /></g></g></symbol><symbol viewBox="0 0 24 23" id="comment"><defs><path id="comment_8blpa" d="M243.4 527h19.2c1.3 0 2.4 1.1 2.4 2.4v13.2c0 1.3-1.1 2.4-2.4 2.4h-11.42l-3.88 4.27a.4.4 0 0 1-.7-.27v-4h-3.2c-1.3 0-2.4-1.1-2.4-2.4v-13.2c0-1.3 1.1-2.4 2.4-2.4z" /></defs><g><g transform="translate(-241 -527)"><use xlink:href="#comment_8blpa" /></g></g></symbol><symbol viewBox="0 0 20 24" id="contest"><defs><path id="contest_i1lma" d="M31.96 541.64c0-.22-.17-.35-.38-.3 0 0-.98.26-1.7.26s-1.7-.26-1.7-.26c-.2-.05-.38.08-.38.3v1.15c0 .22.18.4.4.4h3.37a.4.4 0 0 0 .39-.4z" /><path id="contest_i1lmb" d="M35.84 526.8c0-.44-.35-.8-.78-.8H24.7a.79.79 0 0 0-.78.8v6.56c0 2.06.6 3.93 1.7 5.27a5.45 5.45 0 0 0 4.26 2.1c1.65 0 3.17-.75 4.27-2.1a8.32 8.32 0 0 0 1.7-5.27v-6.56z" /><path id="contest_i1lmc" d="M23.18 534.96c-1.08-.41-1.57-1.35-1.57-2.91v-3.56h1.45v-1.59h-2.24a.79.79 0 0 0-.78.8v4.35c0 2.65 1.25 4.27 3.56 4.65a9.78 9.78 0 0 1-.42-1.74z" /><path id="contest_i1lmd" d="M24.7 544.39a.79.79 0 0 0-.78.8v3.94c0 .44.35.8.78.8h10.36c.43 0 .78-.36.78-.8v-3.94c0-.44-.35-.8-.78-.8z" /><path id="contest_i1lme" d="M38.94 526.9h-2.23v1.6h1.45v3.55c0 1.56-.5 2.5-1.57 2.9-.09.61-.23 1.2-.42 1.75 2.3-.38 3.56-2 3.56-4.65v-4.35c0-.44-.35-.8-.79-.8z" /></defs><g><g transform="translate(-20 -526)"><use xlink:href="#contest_i1lma" /></g><g transform="translate(-20 -526)"><use xlink:href="#contest_i1lmb" /></g><g transform="translate(-20 -526)"><use xlink:href="#contest_i1lmc" /></g><g transform="translate(-20 -526)"><use xlink:href="#contest_i1lmd" /></g><g transform="translate(-20 -526)"><use xlink:href="#contest_i1lme" /></g></g></symbol><symbol viewBox="0 0 13 16" id="delete"><defs><path id="delete_ryv9a" d="M78.02 190.33v1c0 .19-.15.34-.33.34H66.33a.33.33 0 0 1-.33-.34v-1c0-.73.6-1.33 1.34-1.33h2v-.67c0-.73.6-1.33 1.33-1.33h2.68c.73 0 1.33.6 1.33 1.33v.67h2c.74 0 1.34.6 1.34 1.33zm-4.67-2h-2.68v.67h2.68z" /><path id="delete_ryv9b" d="M77.02 192.33H67a.33.33 0 0 0-.33.33v9c0 .74.6 1.34 1.34 1.34h8c.75 0 1.35-.6 1.35-1.34v-9a.33.33 0 0 0-.34-.33z" /></defs><g><g transform="translate(-66 -187)"><use fill="#4e677f" xlink:href="#delete_ryv9a" /></g><g transform="translate(-66 -187)"><use fill="#4e677f" xlink:href="#delete_ryv9b" /></g></g></symbol><symbol viewBox="0 0 24 6" id="dots"><defs><path id="dots_d3tza" d="M285 70a3 3 0 1 1 6 0 3 3 0 0 1-6 0z" /><path id="dots_d3tzb" d="M294 70a3 3 0 1 1 6 0 3 3 0 0 1-6 0z" /><path id="dots_d3tzc" d="M276 70a3 3 0 1 1 6 0 3 3 0 0 1-6 0z" /></defs><g><g transform="translate(-276 -67)"><use xlink:href="#dots_d3tza" /></g><g transform="translate(-276 -67)"><use xlink:href="#dots_d3tzb" /></g><g transform="translate(-276 -67)"><use xlink:href="#dots_d3tzc" /></g></g></symbol><symbol viewBox="0 0 24 22" id="faces"><defs><path id="faces_wnzla" d="M282.17 542.42l2.79-6.73v10.37l-1.54-.64a2.32 2.32 0 0 1-1.25-3zm22.4 1.74l-8.45 3.5a2.3 2.3 0 0 1-2.99-1.24l-5.7-13.76a2.3 2.3 0 0 1 1.24-2.99l8.47-3.5a2.31 2.31 0 0 1 2.99 1.24l5.7 13.76a2.3 2.3 0 0 1-1.25 2.99zm-13.85-12.41c0-.64-.52-1.15-1.15-1.15a1.15 1.15 0 1 0 1.15 1.15zm-3.45 13.78v-7.28l3.97 9.58h-1.67a2.3 2.3 0 0 1-2.3-2.3z" /></defs><g><g transform="translate(-282 -526)"><use xlink:href="#faces_wnzla" /></g></g></symbol><symbol viewBox="0 0 15 15" id="gift"><defs><path id="gift_tojya" d="M76.97 19.89v1.46c0 .27-.22.5-.49.5h-14a.49.49 0 0 1-.48-.5V19.9c0-.54.44-.98.98-.98h1.08a1.73 1.73 0 0 1-.26-.75 1.92 1.92 0 0 1 1.14-1.98 1.91 1.91 0 0 1 2.09.34l1.37 1.24a1.46 1.46 0 0 1 2.17 0l1.37-1.24a1.91 1.91 0 0 1 2.09-.34 1.92 1.92 0 0 1 1.14 1.98c-.03.27-.12.53-.27.75H76c.53 0 .97.44.97.98zm-8.95-1.15l-1.65-1.5a.94.94 0 0 0-1.05-.16.96.96 0 0 0 .4 1.83h2.3v-.16-.01zm5.48-1.72a.98.98 0 0 0-.92.24l-1.63 1.47v.18h2.25c.5 0 .97-.37 1-.88a.95.95 0 0 0-.7-1z" /><path id="gift_tojyb" d="M62.98 22.82v7.16c0 .54.44.98.98.98h4.55v-8.14z" /><path id="gift_tojyc" d="M70.46 22.82v8.14h4.56c.54 0 .97-.44.97-.98v-7.16z" /></defs><g><g transform="translate(-62 -16)"><use fill="#fff" xlink:href="#gift_tojya" /></g><g transform="translate(-62 -16)"><use fill="#fff" xlink:href="#gift_tojyb" /></g><g transform="translate(-62 -16)"><use fill="#fff" xlink:href="#gift_tojyc" /></g></g></symbol><symbol viewBox="0 0 15 15" id="gift-blue"><defs><path id="gift-blue_2c04a" d="M59.97 195.89v1.46c0 .27-.22.5-.49.5h-14a.49.49 0 0 1-.48-.5v-1.46c0-.54.44-.98.98-.98h1.08a1.73 1.73 0 0 1-.26-.75 1.92 1.92 0 0 1 1.14-1.98 1.91 1.91 0 0 1 2.09.34l1.37 1.24a1.46 1.46 0 0 1 2.17 0l1.37-1.24a1.91 1.91 0 0 1 2.09-.34 1.92 1.92 0 0 1 1.14 1.98c-.03.27-.12.53-.27.75H59c.53 0 .97.44.97.98zm-8.95-1.15l-1.65-1.5a.94.94 0 0 0-1.05-.16.96.96 0 0 0 .4 1.83h2.3v-.16-.01zm5.48-1.72a.98.98 0 0 0-.92.24l-1.63 1.47v.18h2.25c.5 0 .97-.37 1-.88a.95.95 0 0 0-.7-1z" /><path id="gift-blue_2c04b" d="M45.98 198.82v7.16c0 .54.44.98.98.98h4.55v-8.14z" /><path id="gift-blue_2c04c" d="M53.46 198.82v8.14h4.56c.54 0 .97-.44.97-.98v-7.16z" /></defs><g><g transform="translate(-45 -192)"><use fill="#445c75" xlink:href="#gift-blue_2c04a" /></g><g transform="translate(-45 -192)"><use fill="#445c75" xlink:href="#gift-blue_2c04b" /></g><g transform="translate(-45 -192)"><use fill="#445c75" xlink:href="#gift-blue_2c04c" /></g></g></symbol><symbol viewBox="0 0 24 21" id="heart-wizard"><defs><path id="heart-wizard_sq6va" d="M77.3 534.66c-1.13-1.1-2.7-1.66-4.7-1.66-.56 0-1.12.1-1.7.29-.57.19-1.1.45-1.6.77a12.38 12.38 0 0 0-2.3 1.83 12.39 12.39 0 0 0-2.3-1.83 6.86 6.86 0 0 0-1.6-.77 5.34 5.34 0 0 0-1.7-.29c-2 0-3.57.55-4.7 1.66-1.13 1.1-1.7 2.64-1.7 4.6 0 .6.1 1.22.31 1.86a8.1 8.1 0 0 0 1.63 2.92c.34.43.59.72.75.88.15.16.27.28.36.35l8.36 8.06a.8.8 0 0 0 .59.24.8.8 0 0 0 .59-.24l8.34-8.04c2.05-2.04 3.07-4.05 3.07-6.02 0-1.97-.57-3.5-1.7-4.6z" /></defs><g><g transform="translate(-55 -533)"><use xlink:href="#heart-wizard_sq6va" /></g></g></symbol><symbol viewBox="0 0 14 13" id="like">
    <path d="M14 5.84543V7.15457C14 7.31694 13.9702 7.47931 13.9106 7.64169L11.9745 12.2084C11.7759 12.7361 11.3887 13 10.8128 13H5.09362C4.75603 13 4.45816 12.8681 4.2 12.6042C3.94184 12.3404 3.81277 12.0359 3.81277 11.6909V5.20609C3.81277 4.86105 3.94184 4.5566 4.2 4.29274L8.37021 0L9.05532 0.700234C9.23404 0.882904 9.3234 1.10617 9.3234 1.37002V1.58314L8.69787 4.56674H12.7191C13.0567 4.56674 13.3546 4.69867 13.6128 4.96253C13.8709 5.20609 14 5.50039 14 5.84543ZM0 13V5.20609H2.5617V13H0Z" />
</symbol><symbol viewBox="0 0 13 16" id="location"><defs><path id="location_p2nqa" d="M57.77 372.38c0 .41-.04.82-.12 1.21l-.04.2c-.1.44-.24.87-.43 1.27-.64 1.52-2.12 4.06-5.44 6.81-.21.17-.5.17-.71 0-3.32-2.76-4.8-5.3-5.44-6.8a6.4 6.4 0 0 1-.43-1.27l-.04-.2a6.4 6.4 0 0 1 6.04-7.6 6.38 6.38 0 0 1 6.6 6.38zm-3.29.08a3.1 3.1 0 1 0-6.2 0 3.1 3.1 0 0 0 6.2 0z" /></defs><g><g transform="translate(-45 -366)"><use fill="#4c677e" xlink:href="#location_p2nqa" /></g></g></symbol><symbol viewBox="0 0 36 47" id="lock"><defs><path id="lock_rg5ga" d="M161.11 129c7.76 0 14.08 6.31 14.08 14.07v4.9h.1a3.72 3.72 0 0 1 3.71 3.71v20.49a3.72 3.72 0 0 1-3.72 3.71h-28.56a3.72 3.72 0 0 1-3.72-3.71v-20.48a3.72 3.72 0 0 1 3.72-3.71h.32v-4.9A14.1 14.1 0 0 1 161.11 129zm3.51 31a3.5 3.5 0 0 0-6.7-1.37 3.43 3.43 0 0 0 1.14 4.22c.26.2.33.4.33.71v4.52a1.75 1.75 0 0 0 2.62 1.52c.55-.28.87-.9.84-1.52l-.01-4.5c0-.33.08-.53.36-.74a3.32 3.32 0 0 0 1.42-2.83zm-11.42-12.02h15.83v-4.9a7.92 7.92 0 0 0-15.83 0z" /></defs><g><g transform="translate(-143 -129)"><use fill="#fff" xlink:href="#lock_rg5ga" /></g></g></symbol><symbol viewBox="0 0 31 29" id="logo"><defs><path id="logo_a" d="M166.34 67.29v-5.58a4.73 4.73 0 0 1 .96-9.34c2.6 0 4.71 2.12 4.71 4.72v.05c.01 1.4-.74 4.55-5.67 10.15zm-8.04 2.58l1.32-3.97a1.81 1.81 0 1 1 1.14 0l1.32 3.97zm-4.26-2.58c-4.93-5.6-5.68-8.75-5.67-10.15v-.05a4.72 4.72 0 1 1 5.67 4.62zM173 51.35a8.05 8.05 0 0 0-12.81 1.89 8.11 8.11 0 0 0-7.11-4.24 8 8 0 0 0-5.69 2.35 8.04 8.04 0 0 0-2.39 5.66v.12c-.03 8.24 14.04 19.79 14.64 20.27l.55.46.56-.46c.6-.48 14.66-12.03 14.64-20.27l-.01-.12a8.03 8.03 0 0 0-2.38-5.66z" /></defs><g transform="translate(-145 -49)"><use fill="#e24646" xlink:href="#logo_a" /></g></symbol><symbol viewBox="0 0 15 11" id="mail-blue"><defs><path id="mail-blue_kgu2a" d="M45 237.24v8.34c0 .1.02.2.05.28l4.52-4.36z" /><path id="mail-blue_kgu2b" d="M59.93 237.08l.01-.05-4.56 4.4 4.56 4.25-.01-.1v-8.5z" /><path id="mail-blue_kgu2c" d="M54.68 242.1l-1.86 1.8a.49.49 0 0 1-.67 0l-1.85-1.73-4.59 4.42c.11.04.23.07.36.07H58.9c.19 0 .36-.06.51-.14z" /><path id="mail-blue_kgu2d" d="M52.49 242.87l6.96-6.7c-.16-.1-.34-.16-.54-.16H46.07c-.25 0-.49.1-.67.25z" /></defs><g><g transform="translate(-45 -236)"><use fill="#445c75" xlink:href="#mail-blue_kgu2a" /></g><g transform="translate(-45 -236)"><use fill="#445c75" xlink:href="#mail-blue_kgu2b" /></g><g transform="translate(-45 -236)"><use fill="#445c75" xlink:href="#mail-blue_kgu2c" /></g><g transform="translate(-45 -236)"><use fill="#445c75" xlink:href="#mail-blue_kgu2d" /></g></g></symbol><symbol viewBox="0 0 39 32" fill="none" id="mail-heart">
    <path d="M0 0V27.1303H19.1578H38.3156V0H0Z" fill="#DCD6CD" />
    <path d="M21.1865 1.28208C20.0664 2.29912 18.2498 2.29912 17.1291 1.28208L15.7012 -4.24591e-08C11.234 4.05355 0 13.0337 0 13.0337H14.7837H23.5326H38.3156C38.3156 13.0337 27.0816 4.05355 22.6144 -4.24591e-08L21.1865 1.28208Z" transform="translate(0 14.0966)" fill="#E8E3D9" />
    <path d="M0 0L17.1291 15.3787C18.2492 16.3958 20.0657 16.3958 21.1865 15.3787L38.3156 0H0Z" fill="#EFEBDE" />
    <path d="M8.21025 2.92173C8.87324 1.40312 10.3374 0 12.0993 0C14.4714 0 16.1799 1.96243 16.3947 4.3012C16.3947 4.3012 16.511 4.88207 16.2558 5.92693C15.9083 7.35023 15.092 8.61492 13.9904 9.57979L8.21025 14.6086L2.43075 9.57979C1.32918 8.61492 0.512921 7.35023 0.165344 5.92693C-0.0898654 4.88207 0.0264504 4.3012 0.0264504 4.3012C0.241291 1.96243 1.94976 0 4.3219 0C6.08305 0 7.54725 1.40312 8.21025 2.92173Z" transform="translate(22.5789 17.3914)" fill="#F09372" />
</symbol><symbol viewBox="0 0 39 36" fill="none" id="mail-verification">
    <path d="M35.1386 35.9407H3.91228C2.88827 35.9407 1.90621 35.5345 1.18213 34.8116C0.458052 34.0887 0.0512695 33.1082 0.0512695 32.0859V17.8026C0.0512696 17.5951 0.093593 17.3899 0.175655 17.1993C0.257717 17.0088 0.377797 16.8369 0.528575 16.6942L17.0754 1.03442C17.737 0.408315 18.6139 0.0593262 19.5254 0.0593262C20.437 0.0593262 21.3139 0.408315 21.9754 1.03442L37.752 15.9652C38.1461 16.3382 38.46 16.7874 38.6745 17.2855C38.889 17.7836 38.9996 18.3201 38.9996 18.8622V32.0859C38.9996 32.5921 38.8997 33.0934 38.7057 33.5611C38.5117 34.0287 38.2273 34.4537 37.8687 34.8116C37.5102 35.1696 37.0846 35.4535 36.6161 35.6473C36.1477 35.841 35.6456 35.9407 35.1386 35.9407Z" fill="#3F3D56" />
    <path opacity="0.1" d="M0.0512695 18.0364H38.675V33.6123C38.675 34.2296 38.4294 34.8217 37.9921 35.2582C37.5549 35.6947 36.9619 35.94 36.3436 35.94H2.38267C1.76434 35.94 1.17134 35.6947 0.734121 35.2582C0.296898 34.8217 0.0512695 34.2296 0.0512695 33.6123V18.0364Z" fill="black" />
    <path d="M31.7235 5.76343H7.24793C6.07466 5.76343 5.12354 6.71302 5.12354 7.88441V32.3206C5.12354 33.492 6.07466 34.4416 7.24793 34.4416H31.7235C32.8968 34.4416 33.8479 33.492 33.8479 32.3206V7.88441C33.8479 6.71302 32.8968 5.76343 31.7235 5.76343Z" fill="#6C63FF" />
    <path opacity="0.1" d="M33.8469 18.6812V34.442H5.12256V18.6812L19.4847 25.6117L33.8469 18.6812Z" fill="black" />
    <path d="M19.4854 26.5029L1.08281 17.6226C0.968987 17.5677 0.843056 17.5425 0.716823 17.5495C0.59059 17.5564 0.468189 17.5952 0.361095 17.6623C0.254 17.7294 0.16572 17.8225 0.104526 17.933C0.043333 18.0434 0.0112306 18.1676 0.0112305 18.2938V33.5726C0.0112304 33.8782 0.0715332 34.1809 0.188697 34.4633C0.305861 34.7457 0.477593 35.0023 0.694084 35.2185C0.910575 35.4346 1.16759 35.6061 1.45044 35.723C1.7333 35.84 2.03647 35.9002 2.34264 35.9002H36.6282C36.9343 35.9002 37.2375 35.84 37.5203 35.723C37.8032 35.6061 38.0602 35.4346 38.2767 35.2185C38.4932 35.0023 38.6649 34.7457 38.7821 34.4633C38.8993 34.1809 38.9596 33.8782 38.9596 33.5726V18.5555C38.9596 18.4015 38.9204 18.25 38.8457 18.1152C38.771 17.9805 38.6633 17.8668 38.5326 17.785C38.4019 17.7031 38.2526 17.6557 38.0985 17.6473C37.9445 17.6388 37.7908 17.6695 37.6519 17.7365L19.4854 26.5029Z" fill="#3F3D56" />
    <path d="M15.6312 8.39624H7.59814V9.5304H15.6312V8.39624Z" fill="#F2F2F2" />
    <path d="M30.8041 12.5278H6.94824V13.1759H30.8041V12.5278Z" fill="#F2F2F2" />
    <path d="M30.8041 14.7151H6.94824V15.3632H30.8041V14.7151Z" fill="#F2F2F2" />
    <path d="M30.8041 16.9023H6.94824V17.5504H30.8041V16.9023Z" fill="#F2F2F2" />
    <path d="M6.29998 9.54297C8.13734 9.54297 9.62682 8.05319 9.62682 6.21545C9.62682 4.37772 8.13734 2.88794 6.29998 2.88794C4.46262 2.88794 2.97314 4.37772 2.97314 6.21545C2.97314 8.05319 4.46262 9.54297 6.29998 9.54297Z" fill="white" />
    <path d="M6.30069 2.3208C5.51432 2.3208 4.7456 2.55361 4.09175 2.9898C3.43791 3.42598 2.9283 4.04595 2.62736 4.77129C2.32643 5.49664 2.24769 6.29479 2.40111 7.06482C2.55452 7.83484 2.9332 8.54215 3.48925 9.09731C4.0453 9.65247 4.75375 10.0305 5.52502 10.1837C6.29628 10.3369 7.09572 10.2583 7.82223 9.95781C8.54875 9.65736 9.16971 9.14857 9.6066 8.49577C10.0435 7.84298 10.2767 7.0755 10.2767 6.29039C10.2736 5.23853 9.8537 4.23064 9.10873 3.48687C8.36376 2.74309 7.35424 2.32388 6.30069 2.3208ZM5.48447 8.40686L3.44678 6.37245L4.01833 5.80182L5.48638 7.26752L8.58497 4.17391L9.15652 4.74454L5.48447 8.40687L5.48447 8.40686Z" fill="#57B894" />
</symbol><symbol viewBox="0 0 24 18" id="mails"><defs><path id="mails_i3yfa" d="M217 528.98v13.35c0 .15.04.3.07.44l7.25-6.98z" /><path id="mails_i3yfb" d="M240.9 528.72l.02-.08-7.3 7.03 7.29 6.8-.01-.14v-13.6z" /><path id="mails_i3yfc" d="M232.5 536.76l-2.98 2.87a.78.78 0 0 1-1.07 0l-2.97-2.76-7.34 7.07c.18.06.37.11.57.11h20.54c.3 0 .57-.09.82-.22z" /><path id="mails_i3yfd" d="M228.98 537.99l11.13-10.73a1.69 1.69 0 0 0-.86-.25h-20.53c-.41 0-.79.16-1.08.4z" /></defs><g><g transform="translate(-217 -527)"><use xlink:href="#mails_i3yfa" /></g><g transform="translate(-217 -527)"><use xlink:href="#mails_i3yfb" /></g><g transform="translate(-217 -527)"><use xlink:href="#mails_i3yfc" /></g><g transform="translate(-217 -527)"><use xlink:href="#mails_i3yfd" /></g></g></symbol><symbol viewBox="0 0 15 15" id="message"><defs><path id="message_ageha" d="M304.77 61.1c.18.13.26.3.22.53l-2.14 12.85a.53.53 0 0 1-.52.44.56.56 0 0 1-.2-.04l-3.8-1.55-2.02 2.47a.5.5 0 0 1-.41.2.52.52 0 0 1-.44-.23.52.52 0 0 1-.1-.31v-2.92l7.23-8.86-8.94 7.74-3.3-1.36a.5.5 0 0 1-.34-.46.5.5 0 0 1 .27-.5l13.92-8.02a.52.52 0 0 1 .57.02z" /></defs><g><g transform="translate(-290 -61)"><use fill="#fff" xlink:href="#message_ageha" /></g></g></symbol><symbol viewBox="0 0 6 11" fill="none" id="mobile">
    <path d="M5.09377 1.5835V0.542825C5.09377 0.243349 4.86124 0 4.54277 0C4.22392 0 3.96572 0.243349 3.96572 0.542825V1.58352H0.906661C0.151181 1.58352 0 2.15992 0 2.86996V9.71318C0 10.4235 0.151181 11 0.906661 11H5.11977C5.87525 11 6 10.4235 6 9.71318V2.86994C6.00002 2.1599 5.84925 1.5835 5.09377 1.5835ZM5.09377 5.34463C5.09377 5.57264 4.89687 5.75788 4.65436 5.75788H1.3464C1.10346 5.75788 0.906661 5.57264 0.906661 5.34463V2.99228C0.906661 2.76413 1.10346 2.57903 1.3464 2.57903H4.65436C4.89687 2.57903 5.09377 2.76413 5.09377 2.99228V5.34463Z" fill="#60B341" />
</symbol><symbol viewBox="0 0 22 24" id="notif"><defs><path id="notif_a" d="M28.94 77h-3.82c-.76 0-1.42.87-.98 1.64a3.58 3.58 0 0 0 2.95 1.63c1.2 0 2.29-.65 2.83-1.63.44-.77-.11-1.64-.98-1.64z" /><path id="notif_b" d="M37.64 73.07l-.43-.54a12.82 12.82 0 0 1-2.62-7.86v-.76c0-3.93-2.84-7.42-6.77-7.86a7.6 7.6 0 0 0-8.5 7.53v1.09c0 2.84-.88 5.57-2.62 7.86l-.44.54c-.22.22-.33.66-.22.88.33.98 1.2 1.63 2.18 1.63h17.46a2.1 2.1 0 0 0 2.07-1.63c.11-.33 0-.66-.11-.88z" /></defs><g transform="translate(-16 -56)"><use xlink:href="#notif_a" /></g><g transform="translate(-16 -56)"><use xlink:href="#notif_b" /></g></symbol><symbol viewBox="0 0 15 15" id="phone"><defs><path id="phone_6ysxa" d="M52.13 332.16a12.2 12.2 0 0 1-2.58-3.08l-.33-.63c.12-.13 1-1.08 1.4-1.6.48-.65-.22-1.24-.22-1.24s-1.98-1.98-2.44-2.37c-.45-.4-.97-.18-.97-.18-.95.61-1.93 1.15-1.99 3.71 0 2.4 1.82 4.88 3.8 6.8 1.97 2.16 4.68 4.33 7.3 4.33 2.56-.06 3.1-1.04 3.7-2 0 0 .23-.51-.17-.96-.39-.46-2.37-2.44-2.37-2.44s-.59-.7-1.24-.22c-.49.37-1.36 1.17-1.57 1.37 0 0-1.45-.78-2.32-1.49z" /></defs><g><g transform="translate(-45 -323)"><use fill="#4c677e" xlink:href="#phone_6ysxa" /></g></g></symbol><symbol viewBox="0 0 48 48" fill="none" id="photo_verification">
    <g opacity="0.5">
        <path opacity="0.5" d="M24 48C37.2548 48 48 37.2548 48 24C48 10.7452 37.2548 0 24 0C10.7452 0 0 10.7452 0 24C0 37.2548 10.7452 48 24 48Z" fill="url(#photo_verification_paint0_linear)" />
    </g>
    <path d="M24.0466 47.3405C37.0219 47.3405 47.5405 36.822 47.5405 23.8467C47.5405 10.8713 37.0219 0.352783 24.0466 0.352783C11.0713 0.352783 0.552734 10.8713 0.552734 23.8467C0.552734 36.822 11.0713 47.3405 24.0466 47.3405Z" fill="#F5F5F5" />
    <path d="M24.0687 47.4334C28.6594 47.4409 33.1508 46.0968 36.9827 43.5687C36.1169 38.8374 32.8222 38.5679 32.8222 38.5679H14.6537C14.6537 38.5679 11.5447 38.823 10.5737 43.1753C14.5244 45.9543 19.2386 47.4418 24.0687 47.4334Z" fill="#6C63FF" />
    <path d="M23.8193 34.6914C30.0821 34.6914 35.1591 29.6144 35.1591 23.3516C35.1591 17.0887 30.0821 12.0117 23.8193 12.0117C17.5565 12.0117 12.4795 17.0887 12.4795 23.3516C12.4795 29.6144 17.5565 34.6914 23.8193 34.6914Z" fill="#333333" />
    <path opacity="0.1" d="M20.1592 32.7969H27.4252V38.6098C27.4252 39.5731 27.0426 40.497 26.3616 41.1783C25.6806 41.8595 24.7569 42.2425 23.7936 42.2428C22.83 42.2428 21.906 41.8601 21.2246 41.1787C20.5433 40.4974 20.1606 39.5734 20.1606 38.6098V32.7969H20.1592Z" fill="black" />
    <path d="M20.3896 32.5273H27.1977C27.2588 32.5273 27.3174 32.5516 27.3606 32.5948C27.4038 32.638 27.428 32.6966 27.428 32.7577V38.3403C27.4281 38.8176 27.3342 39.2902 27.1516 39.7311C26.9689 40.1721 26.7012 40.5727 26.3637 40.9101C26.0262 41.2476 25.6255 41.5152 25.1845 41.6978C24.7435 41.8803 24.2709 41.9742 23.7937 41.974C22.8301 41.974 21.906 41.5912 21.2247 40.9099C20.5434 40.2286 20.1606 39.3045 20.1606 38.341V32.7577C20.1606 32.6969 20.1847 32.6385 20.2276 32.5953C20.2705 32.5521 20.3288 32.5277 20.3896 32.5273Z" fill="#FDB797" />
    <path opacity="0.1" d="M20.1724 35.5408C22.5141 36.4157 25.0918 36.4228 27.4384 35.5608V34.6667H20.1724V35.5408Z" fill="black" />
    <path d="M23.8192 36.0266C29.5712 36.0266 34.2341 31.3637 34.2341 25.6117C34.2341 19.8597 29.5712 15.1968 23.8192 15.1968C18.0672 15.1968 13.4043 19.8597 13.4043 25.6117C13.4043 31.3637 18.0672 36.0266 23.8192 36.0266Z" fill="#FDB797" />
    <path opacity="0.1" d="M16.4004 16.1385C16.4004 16.1385 20.7898 25.048 33.1715 19.8739L30.2888 15.3538L25.1786 13.5198L16.4004 16.1385Z" fill="black" />
    <path d="M16.4004 16.0078C16.4004 16.0078 20.7898 24.9173 33.1715 19.7418L30.2888 15.2217L25.1786 13.3877L16.4004 16.0078Z" fill="#333333" />
    <path d="M16.362 15.4037C16.6579 14.4875 17.1694 13.6558 17.8535 12.9783C19.9021 10.9531 23.2607 10.526 24.9834 8.2168C25.396 8.85771 25.0769 9.84316 24.3645 10.1182C26.0149 10.1072 27.9273 9.96281 28.8605 8.60534C29.0911 9.14222 29.1647 9.73354 29.0725 10.3106C28.9804 10.8876 28.7263 11.4266 28.3399 11.8649C29.8026 11.9337 31.3657 12.924 31.4579 14.3853C31.5212 15.359 30.9077 16.2805 30.1107 16.8389C29.3137 17.3973 28.3427 17.6538 27.3903 17.8636C24.6093 18.4777 14.5472 21.0475 16.362 15.4037Z" fill="#333333" />
    <path d="M13.4006 27.4193C13.9357 27.4193 14.3695 26.6059 14.3695 25.6025C14.3695 24.5991 13.9357 23.7856 13.4006 23.7856C12.8654 23.7856 12.4316 24.5991 12.4316 25.6025C12.4316 26.6059 12.8654 27.4193 13.4006 27.4193Z" fill="#FDB797" />
    <path d="M34.2326 27.4193C34.7678 27.4193 35.2016 26.6059 35.2016 25.6025C35.2016 24.5991 34.7678 23.7856 34.2326 23.7856C33.6975 23.7856 33.2637 24.5991 33.2637 25.6025C33.2637 26.6059 33.6975 27.4193 34.2326 27.4193Z" fill="#FDB797" />
    <defs>

    </defs>
</symbol><linearGradient id="photo_verification_paint0_linear" x1="24" y1="48" x2="24" y2="0" gradientUnits="userSpaceOnUse">
    <stop stop-color="#808080" stop-opacity="0.25" />
    <stop offset="0.54" stop-color="#808080" stop-opacity="0.12" />
    <stop offset="1" stop-color="#808080" stop-opacity="0.1" />
</linearGradient><symbol viewBox="0 0 15 16" id="pin"><defs><path id="pin_1o5ia" d="M270.93 64a3.38 3.38 0 0 0-4.8 0l-5.8 5.73c-.8.8-.8 2.07 0 2.87.8.8 2.07.8 2.87 0l4.8-4.8a.64.64 0 0 0 0-.93.64.64 0 0 0-.93 0l-4.8 4.8a.64.64 0 0 1-.94 0 .64.64 0 0 1 0-.94l5.8-5.8c.8-.8 2.07-.8 2.87 0 .8.8.8 2.07 0 2.87l-5.8 5.73a3.38 3.38 0 0 1-4.8 0 3.38 3.38 0 0 1 0-4.8l7.67-7.6a.64.64 0 0 0 0-.93.64.64 0 0 0-.94 0l-7.73 7.67a4.75 4.75 0 0 0 0 6.73 4.75 4.75 0 0 0 6.73 0l5.8-5.73a3.6 3.6 0 0 0 0-4.87z" /></defs><g><g transform="translate(-257 -60)"><use fill="#fff" xlink:href="#pin_1o5ia" /></g></g></symbol><symbol viewBox="0 0 24 24" id="plus"><defs><path id="plus_p97za" d="M284.49 688.49a12 12 0 1 1-16.98-16.98 12 12 0 0 1 16.98 16.98zm-7.3-3.28v-3.86h3.59a1.23 1.23 0 1 0 0-2.46h-3.59v-3.75a1.23 1.23 0 0 0-2.45 0v3.75h-4.04a1.23 1.23 0 1 0 0 2.46h4.04v3.86a1.23 1.23 0 0 0 2.45 0z" /></defs><g><g transform="translate(-264 -668)"><use fill="#67ab61" xlink:href="#plus_p97za" /></g></g></symbol><symbol viewBox="0 0 22 22" id="profile"><defs><path id="profile_a" d="M289 62.55c0-3.62 2.44-6.55 5.46-6.55 3 0 5.45 2.93 5.45 6.54 0 3.62-2.44 6.55-5.46 6.55-3 0-5.45-2.93-5.45-6.54z" /><path id="profile_b" d="M304.62 74.73a9.95 9.95 0 0 0-5.24-4.58c-.65-.22-1.42-.22-1.96.11a6.43 6.43 0 0 1-3.49.98c-1.31 0-2.4-.32-3.49-.98a2.45 2.45 0 0 0-1.97 0 9.93 9.93 0 0 0-5.23 4.58c-.77 1.42.43 3.06 2.07 3.06h17.23c1.64 0 2.84-1.64 2.08-3.17z" /></defs><g transform="translate(-283 -56)"><use xlink:href="#profile_a" /></g><g transform="translate(-283 -56)"><use xlink:href="#profile_b" /></g></symbol><symbol viewBox="0 0 15 15" id="report"><defs><path id="report_fd1ca" d="M81 147.5v9c0 .83-.67 1.5-1.5 1.5H69l-3 3v-13.5c0-.83.67-1.5 1.5-1.5h12c.83 0 1.5.67 1.5 1.5zm-6.75.75h-1.5v4.5h1.5zm0 6h-1.5v1.5h1.5z" /></defs><g><g transform="translate(-66 -146)"><use fill="#445c75" xlink:href="#report_fd1ca" /></g></g></symbol><symbol viewBox="0 0 15 16" id="rose"><defs><path id="rose_6z7za" d="M52.5 280.95a5.38 5.38 0 0 0-2.25.4 10 10 0 0 1 2.07 1.68c.69-.68 1.46-1.26 2.3-1.74a5.42 5.42 0 0 0-2.12-.34z" /><path id="rose_6z7zb" d="M57.1 278.91a10.77 10.77 0 0 0-4.6-.91c-1.75 0-3.38.32-4.59.91-.63.31-1.13.68-1.46 1.09.86.12 1.7.35 2.5.69l.07.03c.21-.22.49-.42.82-.57a6.6 6.6 0 0 1 2.66-.46c1.08 0 2 .16 2.67.46.3.14.56.31.77.52.84-.34 1.72-.57 2.61-.68-.33-.4-.82-.77-1.45-1.08z" /><path id="rose_6z7zc" d="M59.94 281.16a9.54 9.54 0 0 0-6.81 2.85 9.9 9.9 0 0 1 1.88 5.17 4.96 4.96 0 0 1 3.72-.8 6.75 6.75 0 0 0 1.2-4.07z" /><path id="rose_6z7zd" d="M45.05 281.16v3.15c0 1.55.41 2.93 1.13 4.09a5.07 5.07 0 0 1 4.56 1.4l1.76 1.8 1.27-1.29v-.43a8.71 8.71 0 0 0-8.72-8.72z" /><path id="rose_6z7ze" d="M57.8 289.57a3.7 3.7 0 0 0-2.63 1.12l-1.73 1.77a3.78 3.78 0 0 0 4.81-.45l1.74-1.77a3.73 3.73 0 0 0-2.19-.67z" /><path id="rose_6z7zf" d="M49.83 290.7a3.72 3.72 0 0 0-4.81-.45l1.74 1.76a3.78 3.78 0 0 0 4.81.45z" /></defs><g><g transform="translate(-45 -278)"><use fill="#445c75" xlink:href="#rose_6z7za" /></g><g transform="translate(-45 -278)"><use fill="#445c75" xlink:href="#rose_6z7zb" /></g><g transform="translate(-45 -278)"><use fill="#445c75" xlink:href="#rose_6z7zc" /></g><g transform="translate(-45 -278)"><use fill="#445c75" xlink:href="#rose_6z7zd" /></g><g transform="translate(-45 -278)"><use fill="#445c75" xlink:href="#rose_6z7ze" /></g><g transform="translate(-45 -278)"><use fill="#445c75" xlink:href="#rose_6z7zf" /></g></g></symbol><symbol viewBox="0 0 24 24" id="search"><defs><path id="search_vb3fa" d="M105.34 546.16l-5.5-5.51a10.61 10.61 0 0 1-3.19 3.18l5.5 5.5a2.25 2.25 0 1 0 3.19-3.17z" /><path id="search_vb3fb" d="M91 544a9 9 0 1 1 0-18 9 9 0 0 1 0 18zm6.75-9a6.76 6.76 0 1 0-13.51.01 6.76 6.76 0 0 0 13.51-.01z" /><path id="search_vb3fc" d="M85.75 535h1.5a3.75 3.75 0 0 1 3.75-3.75v-1.5a5.26 5.26 0 0 0-5.25 5.25z" /></defs><g><g transform="translate(-82 -526)"><use xlink:href="#search_vb3fa" /></g><g transform="translate(-82 -526)"><use xlink:href="#search_vb3fb" /></g><g transform="translate(-82 -526)"><use xlink:href="#search_vb3fc" /></g></g></symbol><symbol viewBox="0 0 24 23" id="star"><defs><path id="star_yqt9a" d="M129.21 139.4l-7.57.84a.72.72 0 1 0-.4 1.25l5.63 5.15-1.55 7.5c-.05.27.05.55.29.72a.7.7 0 0 0 .38.14c.13 0 .27-.03.39-.1 2.65-1.5 6.62-3.78 6.62-3.78l6.61 3.79c.25.13.55.13.78-.05a.72.72 0 0 0 .28-.72l-1.54-7.5 5.63-5.15c.2-.19.3-.48.2-.75a.72.72 0 0 0-.6-.5l-7.57-.84-3.14-6.98a.73.73 0 0 0-.65-.42.72.72 0 0 0-.65.42l-3.14 6.98z" /></defs><g><g transform="translate(-121 -132)"><use xlink:href="#star_yqt9a" /></g></g></symbol><symbol viewBox="0 0 20 17" id="update"><defs><path id="update_gkl8a" d="M35.57 112.13l-3.34 3.34a1.48 1.48 0 0 1-2.1 0l-3.32-3.34a1.48 1.48 0 0 1 2.09-2.1l.9.91a5.44 5.44 0 1 0-5.4 5.89 1.48 1.48 0 1 1 0 2.96 8.4 8.4 0 0 1 0-16.79 8.4 8.4 0 0 1 8.36 7.75l.71-.71a1.48 1.48 0 1 1 2.1 2.1z" /></defs><g><g transform="translate(-16 -103)"><use fill="#c3c2c2" xlink:href="#update_gkl8a" /></g></g></symbol><symbol viewBox="0 0 17 22" id="validate-bage"><defs><path id="validate-bage_1gisa" d="M25.59 200s-2.3 2.76-7.59 2.76v6.58c0 3.44 1.5 6.75 4.2 8.87.95.76 2.08 1.4 3.39 1.79 1.3-.39 2.43-1.03 3.39-1.79 2.7-2.12 4.2-5.43 4.2-8.87v-6.58c-5.3 0-7.6-2.76-7.6-2.76z" /><path id="validate-bage_1gisd" d="M25.59 217.81a8.38 8.38 0 0 1-2.12-1.22 9.23 9.23 0 0 1-3.4-7.25v-4.64a12.54 12.54 0 0 0 5.52-2c1.16.79 2.97 1.67 5.51 2v4.64a9.23 9.23 0 0 1-3.4 7.25c-.67.53-1.38.94-2.11 1.22z" /><path id="validate-bage_1gise" d="M29.95 206.99a.34.34 0 0 0-.49.03l-4.58 5.24-2.5-2.5a.34.34 0 1 0-.49.49l2.76 2.76c.06.06.15.1.24.1h.01c.1 0 .19-.05.25-.12l4.83-5.52a.34.34 0 0 0-.03-.48z" /><filter id="validate-bage_1gisb" width="37.17" height="42" x="7" y="189" filterUnits="userSpaceOnUse"><feOffset in="SourceGraphic" result="FeOffset1023Out"></feOffset><feGaussianBlur in="FeOffset1023Out" result="FeGaussianBlur1024Out" stdDeviation="0.4 0.4"></feGaussianBlur></filter></defs><g><g opacity=".8" transform="translate(-17 -199)"><g filter="url(#validate-bage_1gisb)"><use fill="none" stroke-opacity=".5" stroke-width="0" mask="url(&quot;#1gisc&quot;)" xlink:href="#validate-bage_1gisa" /><use fill="#b3b3b3" fill-opacity=".5" xlink:href="#validate-bage_1gisa" /></g><use fill="#fff" xlink:href="#validate-bage_1gisa" /></g><g transform="translate(-17 -199)"><use fill="#274b55" xlink:href="#validate-bage_1gisd" /></g><g transform="translate(-17 -199)"><use fill="#fff" xlink:href="#validate-bage_1gise" /></g></g></symbol><mask id="validate-bage_1gisc" width="2" height="2" x="-1" y="-1"><path fill="#fff" d="M18 200h15.17v20H18z" /><use xlink:href="#validate-bage_1gisa" /></mask><symbol viewBox="0 0 20 24" fill="none" id="validate-bage-white">
    <g filter="url(#validate-bage-white_filter0z_d)">
        <path d="M9.9 20.9817C9.932 20.9937 9.96571 21 10 21C10.0343 21 10.068 20.9937 10.1 20.9817C10.1789 20.952 18 17.9223 18 8.97029V2.42857C18 2.27086 17.872 2.14286 17.7143 2.14286C17.7143 2.14286 14 1 10 1C6 1 2.28571 2.14286 2.28571 2.14286C2.128 2.14286 2 2.27086 2 2.42857V8.97029C2 17.9223 9.82114 20.9526 9.9 20.9817Z" fill="url(#validate-bage-white_paint0_linear)" />
    </g>
    <path fill-rule="evenodd" clip-rule="evenodd" d="M14.3999 8.61489L9.44042 12.7647L6.79993 10.2806L8.14821 9.01221L9.51702 10.3L13.1327 7.27454L14.3999 8.61489Z" fill="#272C2F" />
    <defs>
        <filter id="validate-bage-white_filter0z_d" x="0" y="0" width="20" height="24" filterUnits="userSpaceOnUse" color-interpolation-filters="sRGB">
            <feFlood flood-opacity="0" result="BackgroundImageFix"></feFlood>
            <feColorMatrix in="SourceAlpha" type="matrix" values="0 0 0 0 0 0 0 0 0 0 0 0 0 0 0 0 0 0 127 0"></feColorMatrix>
            <feOffset dy="1"></feOffset>
            <feGaussianBlur stdDeviation="1"></feGaussianBlur>
            <feColorMatrix type="matrix" values="0 0 0 0 0 0 0 0 0 0 0 0 0 0 0 0 0 0 0.25 0"></feColorMatrix>
            <feBlend mode="normal" in2="BackgroundImageFix" result="effect1_dropShadow"></feBlend>
            <feBlend mode="normal" in="SourceGraphic" in2="effect1_dropShadow" result="shape"></feBlend>
        </filter>

    </defs>
</symbol><linearGradient id="validate-bage-white_paint0_linear" x1="4.4" y1="1" x2="17.659" y2="18.8997" gradientUnits="userSpaceOnUse">
    <stop stop-color="white" />
    <stop offset="1" stop-color="white" />
</linearGradient><symbol viewBox="0 0 38 38" fill="none" id="validated">
    <path d="M24.9373 9.5H6.46524C4.6435 9.5 3.16669 10.9768 3.16669 12.7986V23.3541C3.16669 24.9375 5.00998 26.6527 6.2918 26.6527H24.9373C26.759 26.6527 28.2358 25.1759 28.2358 23.3541V12.7986C28.2358 10.9768 26.759 9.5 24.9373 9.5Z" fill="#CFD8DC" />
    <path d="M14.2376 14.7766H12.9182C12.5539 14.7766 12.2585 14.4812 12.2585 14.1168C12.2585 13.7525 12.5538 13.4572 12.9182 13.4572H14.2376C14.6019 13.4572 14.8973 13.7525 14.8973 14.1169C14.8973 14.4812 14.602 14.7766 14.2376 14.7766Z" fill="#90A4AE" />
    <path fill-rule="evenodd" clip-rule="evenodd" d="M23.5207 14.776H24.8179C25.1823 14.776 25.4776 14.4807 25.4776 14.1163C25.4776 13.752 25.1822 13.4566 24.8179 13.4566H23.4985C23.491 13.4566 23.4836 13.4567 23.4762 13.457H22.179C21.8147 13.457 21.5193 13.7523 21.5193 14.1166C21.5193 14.481 21.8147 14.7764 22.1791 14.7764H23.4985C23.5059 14.7764 23.5133 14.7763 23.5207 14.776Z" fill="#90A4AE" />
    <path fill-rule="evenodd" clip-rule="evenodd" d="M18.2129 14.7848H19.5198C19.8842 14.7848 20.1795 14.4895 20.1795 14.1251C20.1795 13.7608 19.8841 13.4654 19.5198 13.4654H18.2004C18.1965 13.4654 18.1925 13.4654 18.1887 13.4655H16.8817C16.5174 13.4655 16.222 13.7608 16.222 14.1252C16.222 14.4895 16.5174 14.7849 16.8818 14.7849H18.2012C18.2051 14.7849 18.209 14.7849 18.2129 14.7848Z" fill="#90A4AE" />
    <path d="M18.7595 18.7353H12.9024C12.5381 18.7353 12.2427 18.4399 12.2427 18.0756C12.2427 17.7112 12.5381 17.4159 12.9024 17.4159L18.576 17.4174C18.9404 17.4174 18.8398 17.7113 18.8398 18.0756C18.8398 18.44 19.1238 18.7353 18.7595 18.7353Z" fill="#90A4AE" />
    <path fill-rule="evenodd" clip-rule="evenodd" d="M6.96552 22.6933H9.00644H12.2432H14.2636H14.2841H19.5207H19.5413H24.7984C25.1627 22.6933 25.4581 22.3979 25.4581 22.0336C25.4581 21.6692 25.1627 21.3738 24.7984 21.3738H19.5413H19.5207H14.2841H14.2636H12.2432H9.00644H6.96552C6.60117 21.3738 6.30579 21.6692 6.30579 22.0335C6.30579 22.3979 6.60117 22.6933 6.96552 22.6933Z" fill="#90A4AE" />
    <path d="M23.3977 18.7349H18.12C17.7557 18.7349 17.4603 18.4396 17.4603 18.0752C17.4603 17.7109 17.7557 17.4155 18.12 17.4155H23.3977C23.7621 17.4155 24.0574 17.7109 24.0574 18.0753C24.0574 18.4396 23.7621 18.7349 23.3977 18.7349Z" fill="#90A4AE" />
    <path d="M14.3807 22.6938H13.0613C12.6969 22.6938 12.4016 22.3984 12.4016 22.0341C12.4016 21.6697 12.6969 21.3743 13.0613 21.3743H14.3807C14.745 21.3743 15.0404 21.6697 15.0404 22.0341C15.0404 22.3985 14.745 22.6938 14.3807 22.6938Z" fill="#90A4AE" />
    <path d="M27.8402 30.3471C31.8481 30.3471 35.0971 27.0981 35.0971 23.0902C35.0971 19.0823 31.8481 15.8333 27.8402 15.8333C23.8324 15.8333 20.5834 19.0823 20.5834 23.0902C20.5834 27.0981 23.8324 30.3471 27.8402 30.3471Z" fill="#04C01B" />
    <path d="M26.2557 26.3893C26.0806 26.3897 25.9126 26.3204 25.7886 26.1967L23.1497 23.5578C22.8966 23.2957 22.9039 22.8781 23.1659 22.6249C23.4216 22.378 23.8269 22.378 24.0825 22.6249L26.2557 24.7968L31.0663 19.9861C31.3284 19.7331 31.746 19.7403 31.9992 20.0023C32.2461 20.258 32.2461 20.6633 31.9992 20.9189L26.7215 26.1967C26.5978 26.32 26.4304 26.3893 26.2557 26.3893Z" fill="#FAFAFA" />
    <path d="M10.3025 17.1939L9.31607 16.6897C9.22304 16.6421 9.16521 16.5465 9.16521 16.4401V16.0832C9.18886 16.0536 9.21374 16.02 9.23945 15.9828C9.36739 15.7981 9.46993 15.5925 9.54449 15.3707C9.69019 15.3024 9.78477 15.1552 9.78477 14.9889V14.5667C9.78477 14.465 9.7476 14.3666 9.68151 14.2896V13.7282C9.6873 13.6701 9.71001 13.3245 9.46549 13.0394C9.25339 12.7921 8.90923 12.6667 8.44238 12.6667C7.97554 12.6667 7.63137 12.7921 7.41927 13.0393C7.17475 13.3244 7.19747 13.6701 7.20325 13.7282V14.2896C7.13717 14.3666 7.09999 14.465 7.09999 14.5667V14.9889C7.09999 15.1174 7.15709 15.2372 7.25457 15.3171C7.34916 15.6999 7.54711 15.9884 7.6163 16.081V16.4303C7.6163 16.5324 7.56177 16.6262 7.47411 16.6752L6.55292 17.1888C6.25336 17.3559 6.06738 17.6761 6.06738 18.0249V18.3667C6.06738 18.8677 7.62094 19 8.44238 19C9.26382 19 10.8174 18.8677 10.8174 18.3667V18.0455C10.8174 17.6826 10.6201 17.3562 10.3025 17.1939Z" fill="#90A4AE" />
</symbol><symbol viewBox="0 0 24 24" id="video"><defs><path id="video_r9k1a" d="M56 794a12 12 0 1 1-24 0 12 12 0 0 1 24 0zm-7.5 0c0-.26-.13-.5-.35-.64l-6-3.75a.75.75 0 0 0-1.15.64v7.5a.75.75 0 0 0 1.15.64l6-3.75a.75.75 0 0 0 .35-.64z" /></defs><g><g transform="translate(-32 -782)"><use fill="#fff" xlink:href="#video_r9k1a" /></g></g></symbol><symbol viewBox="0 0 10 6" fill="none" id="video-cam">
    <path d="M7.50781 2.25L9.5 0.257812V5.74219L7.50781 3.75V5.50781C7.50781 5.64844 7.45312 5.76562 7.34375 5.85938C7.25 5.95312 7.13281 6 6.99219 6H0.992188C0.851562 6 0.734375 5.95312 0.640625 5.85938C0.546875 5.76562 0.5 5.64844 0.5 5.50781V0.492188C0.5 0.351562 0.546875 0.234375 0.640625 0.140625C0.734375 0.046875 0.851562 0 0.992188 0H6.99219C7.13281 0 7.25 0.046875 7.34375 0.140625C7.45312 0.234375 7.50781 0.351562 7.50781 0.492188V2.25Z" fill="white" />
</symbol><symbol viewBox="0 0 25 24" id="vote"><defs><path id="vote_n4dwa" d="M62.8 536.44h-5.2a2.6 2.6 0 0 0-2.6 2.6v8.33a2.6 2.6 0 0 0 2.6 2.6h3.12a2.6 2.6 0 0 0 2.6-2.6v-10.41a.52.52 0 0 0-.52-.52z" /><path id="vote_n4dwb" d="M79.98 540.34c0-.63-.25-1.2-.68-1.64.49-.53.73-1.25.66-1.99a2.69 2.69 0 0 0-2.71-2.35h-6.43a15 15 0 0 0 .83-4.17c0-2.25-1.92-4.16-3.12-4.16-1.08 0-1.86.6-1.89.63-.12.1-.2.25-.2.41v3.53l-2.33 5.07a.52.52 0 0 0 .02.48c.16.26.24.53.24.8v10.41c0 .25-.03.5-.1.78-.06.28.12.56.4.62a6 6 0 0 0 1.26.16h9.55a2.4 2.4 0 0 0 2.36-1.81c.12-.55.04-1.1-.2-1.57a2.33 2.33 0 0 0 1.05-3.12 2.33 2.33 0 0 0 1.29-2.08z" /></defs><g><g transform="translate(-55 -526)"><use xlink:href="#vote_n4dwa" /></g><g transform="translate(-55 -526)"><use xlink:href="#vote_n4dwb" /></g></g></symbol><symbol viewBox="0 0 24 24" id="wink"><defs><path id="wink_nh70a" d="M208.49 487.74a11.74 11.74 0 1 1-23.49 0 11.74 11.74 0 0 1 23.49 0zm-18.31-2.37a2.23 2.23 0 1 0 4.46 0 2.23 2.23 0 0 0-4.46 0zm12.64 5.03c-.47-.33-1.11-.2-1.43.26a5.64 5.64 0 0 1-9.29 0 1.03 1.03 0 1 0-1.7 1.16 7.7 7.7 0 0 0 12.68 0c.32-.46.2-1.1-.26-1.42zm1.7-5.03c0-.57-.47-1.03-1.04-1.03h-3.42a1.03 1.03 0 1 0 0 2.06h3.42c.57 0 1.03-.46 1.03-1.03z" /></defs><g><g transform="translate(-185 -476)"><use xlink:href="#wink_nh70a" /></g></g></symbol></defs><use id="attention-usage" xlink:href="#attention" class="sprite-symbol-usage" /><use id="basket-usage" xlink:href="#basket" class="sprite-symbol-usage" /><use id="bell-usage" xlink:href="#bell" class="sprite-symbol-usage" /><use id="bell-red-usage" xlink:href="#bell-red" class="sprite-symbol-usage" /><use id="block-usage" xlink:href="#block" class="sprite-symbol-usage" /><use id="bubble-blue-usage" xlink:href="#bubble-blue" class="sprite-symbol-usage" /><use id="bubble-red-usage" xlink:href="#bubble-red" class="sprite-symbol-usage" /><use id="camera-usage" xlink:href="#camera" class="sprite-symbol-usage" /><use id="chat-usage" xlink:href="#chat" class="sprite-symbol-usage" /><use id="close-red-usage" xlink:href="#close-red" class="sprite-symbol-usage" /><use id="close-white-usage" xlink:href="#close-white" class="sprite-symbol-usage" /><use id="close-x-usage" xlink:href="#close-x" class="sprite-symbol-usage" /><use id="comment-usage" xlink:href="#comment" class="sprite-symbol-usage" /><use id="contest-usage" xlink:href="#contest" class="sprite-symbol-usage" /><use id="delete-usage" xlink:href="#delete" class="sprite-symbol-usage" /><use id="dots-usage" xlink:href="#dots" class="sprite-symbol-usage" /><use id="faces-usage" xlink:href="#faces" class="sprite-symbol-usage" /><use id="gift-usage" xlink:href="#gift" class="sprite-symbol-usage" /><use id="gift-blue-usage" xlink:href="#gift-blue" class="sprite-symbol-usage" /><use id="heart-wizard-usage" xlink:href="#heart-wizard" class="sprite-symbol-usage" /><use id="like-usage" xlink:href="#like" class="sprite-symbol-usage" /><use id="location-usage" xlink:href="#location" class="sprite-symbol-usage" /><use id="lock-usage" xlink:href="#lock" class="sprite-symbol-usage" /><use id="logo-usage" xlink:href="#logo" class="sprite-symbol-usage" /><use id="mail-blue-usage" xlink:href="#mail-blue" class="sprite-symbol-usage" /><use id="mail-heart-usage" xlink:href="#mail-heart" class="sprite-symbol-usage" /><use id="mail-verification-usage" xlink:href="#mail-verification" class="sprite-symbol-usage" /><use id="mails-usage" xlink:href="#mails" class="sprite-symbol-usage" /><use id="message-usage" xlink:href="#message" class="sprite-symbol-usage" /><use id="mobile-usage" xlink:href="#mobile" class="sprite-symbol-usage" /><use id="notif-usage" xlink:href="#notif" class="sprite-symbol-usage" /><use id="phone-usage" xlink:href="#phone" class="sprite-symbol-usage" /><use id="photo_verification-usage" xlink:href="#photo_verification" class="sprite-symbol-usage" /><use id="pin-usage" xlink:href="#pin" class="sprite-symbol-usage" /><use id="plus-usage" xlink:href="#plus" class="sprite-symbol-usage" /><use id="profile-usage" xlink:href="#profile" class="sprite-symbol-usage" /><use id="report-usage" xlink:href="#report" class="sprite-symbol-usage" /><use id="rose-usage" xlink:href="#rose" class="sprite-symbol-usage" /><use id="search-usage" xlink:href="#search" class="sprite-symbol-usage" /><use id="star-usage" xlink:href="#star" class="sprite-symbol-usage" /><use id="update-usage" xlink:href="#update" class="sprite-symbol-usage" /><use id="validate-bage-usage" xlink:href="#validate-bage" class="sprite-symbol-usage" /><use id="validate-bage-white-usage" xlink:href="#validate-bage-white" class="sprite-symbol-usage" /><use id="validated-usage" xlink:href="#validated" class="sprite-symbol-usage" /><use id="video-usage" xlink:href="#video" class="sprite-symbol-usage" /><use id="video-cam-usage" xlink:href="#video-cam" class="sprite-symbol-usage" /><use id="vote-usage" xlink:href="#vote" class="sprite-symbol-usage" /><use id="wink-usage" xlink:href="#wink" class="sprite-symbol-usage" /></svg>